<?xml version="1.0" encoding="utf-8"?>
<!-- Generator: Adobe Illustrator 17.0.0, SVG Export Plug-In . SVG Version: 6.00 Build 0)  -->
<!DOCTYPE svg PUBLIC "-//W3C//DTD SVG 1.1//EN" "http://www.w3.org/Graphics/SVG/1.1/DTD/svg11.dtd">
<svg version="1.1" id="Ebene_1" xmlns="http://www.w3.org/2000/svg" xmlns:xlink="http://www.w3.org/1999/xlink" x="0px" y="0px"
	 width="70px" height="70px" viewBox="0 0 70 70" enable-background="new 0 0 70 70" xml:space="preserve">
<g>
	<path fill="#010202" d="M48,19.09c-2.632-1.407-5.956-1.092-8.179,0.869c-1.734,1.528-2.271,3.061-2.32,5.535
		c-0.023,1.137-0.005,3.141-0.004,3.253h-8.758c0,0,0-7.479-0.002-8.674c-0.705-0.044-1.561-0.138-2.139-0.125
		c-0.987,0.022-1.378,0.604-1.418,1.61c-0.021,0.574,0.002,6.963,0.004,7.182c0,0-3.645-0.092-5.108,0.305
		c-2.897,0.784-5.18,3.065-5.519,5.981c-0.328,2.8,1.147,5.599,3.656,6.941c2.634,1.407,5.957,1.091,8.181-0.869
		c1.735-1.531,2.271-3.061,2.322-5.535c0.022-1.171,0.002-3.406,0.002-3.406l8.792-0.002c0,0-0.009,8.89-0.009,8.896
		c0,0-3.645-0.092-5.108,0.304c-2.897,0.784-5.18,3.066-5.519,5.981c-0.328,2.801,1.147,5.599,3.656,6.941
		c2.634,1.407,5.957,1.091,8.181-0.868c1.735-1.531,2.271-3.062,2.322-5.536l0.012-3.391c0,0,7.512,0.013,8.672,0.011
		c0.045-0.705,0.138-1.453,0.126-2.032c-0.021-0.987-0.602-1.394-1.609-1.434c-0.571-0.021-7.182,0.019-7.182,0.019
		s0.009-6.991,0.009-8.876c0.132,0.003,3.644,0.085,5.079-0.305c2.898-0.785,5.181-2.92,5.52-5.835
		C51.986,23.229,50.51,20.431,48,19.09z M25.01,36.566c-0.207,1.559-1.9,2.95-3.918,2.687c-1.711-0.222-2.851-1.586-2.818-3.313
		c0.032-1.697,1.292-3.358,2.972-3.634c1.251-0.206,3.932-0.126,3.932-0.126S25.193,35.2,25.01,36.566z M37.19,48.878
		c-0.207,1.559-1.9,2.949-3.918,2.686c-1.711-0.222-2.851-1.586-2.818-3.313c0.031-1.697,1.291-3.358,2.972-3.634
		c1.252-0.206,3.932-0.125,3.932-0.125S37.373,47.511,37.19,48.878z M44.831,28.563c-1.251,0.206-3.929,0.125-3.929,0.125
		s-0.015-2.872,0.165-4.239c0.208-1.558,1.902-2.951,3.921-2.688c1.711,0.223,2.848,1.586,2.816,3.314
		C47.772,26.772,46.513,28.288,44.831,28.563z"/>
	<path fill="#010202" d="M35,5C18.431,5,5,18.432,5,35c0,16.569,13.431,30,30,30c16.569,0,30-13.431,30-30C65,18.432,51.569,5,35,5z
		 M35,61.221c-14.478,0-26.213-11.737-26.213-26.214C8.787,20.528,20.522,8.792,35,8.792c14.478,0,26.214,11.736,26.214,26.214
		C61.214,49.484,49.478,61.221,35,61.221z"/>
</g>
</svg>
