<?xml version="1.0" encoding="UTF-8" standalone="no"?>
<svg width="32px" height="32px" viewBox="0 0 32 32" version="1.1" xmlns="http://www.w3.org/2000/svg" xmlns:xlink="http://www.w3.org/1999/xlink" xmlns:sketch="http://www.bohemiancoding.com/sketch/ns">
    <title>google-plus-color</title>
    <description>Created with Sketch (http://www.bohemiancoding.com/sketch)</description>
    <defs></defs>
    <g id="Page-1" stroke="none" stroke-width="1" fill="none" fill-rule="evenodd" sketch:type="MSPage">
        <g id="google-plus-color" sketch:type="MSArtboardGroup" fill="#DD4B39">
            <path d="M12.9051429,14.9942857 C13.3159184,14.9942857 13.6626939,14.8323265 13.930449,14.5260408 C14.3516735,14.048 14.5364898,13.2617143 14.4267755,12.426449 C14.2302041,10.932898 13.1650612,9.69273469 12.0515918,9.66008163 L12.0071837,9.66008163 C11.6127347,9.66008163 11.2620408,9.82073469 10.9942857,10.1270204 C10.5782857,10.6004898 10.4045714,11.348898 10.5136327,12.181551 C10.708898,13.6724898 11.796898,14.9609796 12.8875102,14.9942857 L12.9051429,14.9942857 L12.9051429,14.9942857 Z" id="Shape" sketch:type="MSShapeGroup"></path>
            <path d="M14.1204898,19.4919184 C14.0107755,19.4181224 13.8971429,19.3404082 13.7802449,19.2600816 C13.4373878,19.1542857 13.0723265,19.0994286 12.7000816,19.0942041 L12.6530612,19.0942041 C10.9387755,19.0942041 9.43412245,20.1338776 9.43412245,21.3185306 C9.43412245,22.6057143 10.7219592,23.616 12.3670204,23.616 C14.5364898,23.616 15.6362449,22.8682449 15.6362449,21.3929796 C15.6362449,21.2525714 15.6199184,21.1082449 15.5866122,20.9645714 C15.4396735,20.3898776 14.9139592,20.0326531 14.1204898,19.4919184 L14.1204898,19.4919184 Z" id="Shape" sketch:type="MSShapeGroup"></path>
            <path d="M15.9000816,0.102530612 C7.01779592,0.102530612 -0.18155102,7.30122449 -0.18155102,16.1828571 C-0.18155102,25.0644898 7.01844898,32.2644898 15.9000816,32.2644898 C24.7804082,32.2644898 31.9804082,25.0644898 31.9804082,16.1828571 C31.9804082,7.30122449 24.7797551,0.102530612 15.9000816,0.102530612 L15.9000816,0.102530612 Z M14.4365714,24.9332245 C13.7952653,25.1180408 13.1036735,25.2127347 12.3768163,25.2127347 C11.5683265,25.2127347 10.7898776,25.1193469 10.0649796,24.9358367 C8.66089796,24.5825306 7.62253061,23.9105306 7.13926531,23.0452245 C6.93028571,22.6703673 6.8244898,22.272 6.8244898,21.8592653 C6.8244898,21.4334694 6.92636735,21.002449 7.12685714,20.5746939 C7.89746939,18.9355102 9.92391837,17.8337959 12.1697959,17.8337959 L12.235102,17.8337959 C12.052898,17.5124898 11.9634286,17.1794286 11.9634286,16.8300408 C11.9634286,16.6550204 11.9862857,16.4780408 12.032,16.298449 C9.67706122,16.2435918 7.91379592,14.5188571 7.91379592,12.244898 C7.91379592,10.6377143 9.19706122,9.07428571 11.0328163,8.44146939 C11.5826939,8.25142857 12.1423673,8.15477551 12.693551,8.15477551 L17.7306122,8.15477551 C17.9030204,8.15477551 18.0532245,8.26579592 18.1067755,8.42906122 C18.1616327,8.59363265 18.101551,8.77191837 17.962449,8.87314286 L16.8359184,9.68816327 C16.768,9.7364898 16.6863673,9.76326531 16.6027755,9.76326531 L16.1998367,9.76326531 C16.7216327,10.3869388 17.0266122,11.2757551 17.0266122,12.2762449 C17.0266122,13.3805714 16.4682449,14.4241633 15.4527347,15.2189388 C14.6684082,15.8302041 14.6364082,15.9967347 14.6364082,16.3480816 C14.6468571,16.5407347 15.1941224,17.1657143 15.7955918,17.5915102 C17.2009796,18.5861224 17.7240816,19.5598367 17.7240816,21.1885714 C17.7240816,22.8832653 16.4329796,24.3539592 14.4365714,24.9332245 L14.4365714,24.9332245 Z M25.8142041,16.2925714 C25.8142041,16.5106939 25.6359184,16.6876735 25.4177959,16.6876735 L22.5554286,16.6876735 L22.5554286,19.5513469 C22.5554286,19.7707755 22.378449,19.9477551 22.1590204,19.9477551 L21.344,19.9477551 C21.1245714,19.9477551 20.9475918,19.7707755 20.9475918,19.5513469 L20.9475918,16.6876735 L18.0832653,16.6876735 C17.866449,16.6876735 17.6881633,16.5106939 17.6881633,16.2925714 L17.6881633,15.4762449 C17.6881633,15.2581224 17.866449,15.0798367 18.0832653,15.0798367 L20.9469388,15.0798367 L20.9469388,12.2174694 C20.9469388,11.9980408 21.1239184,11.8210612 21.3433469,11.8210612 L22.1583673,11.8210612 C22.3777959,11.8210612 22.5547755,11.9980408 22.5547755,12.2174694 L22.5547755,15.0798367 L25.4171429,15.0798367 C25.6352653,15.0798367 25.813551,15.2581224 25.813551,15.4762449 L25.813551,16.2925714 L25.8142041,16.2925714 Z" id="Shape" sketch:type="MSShapeGroup"></path>
        </g>
    </g>
</svg>