<?xml version="1.0" encoding="UTF-8" standalone="no"?>
<svg width="33px" height="32px" viewBox="0 0 33 32" version="1.1" xmlns="http://www.w3.org/2000/svg" xmlns:xlink="http://www.w3.org/1999/xlink" xmlns:sketch="http://www.bohemiancoding.com/sketch/ns">
    <title>logo-dark-small</title>
    <description>Created with Sketch (http://www.bohemiancoding.com/sketch)</description>
    <defs></defs>
    <g id="Page-1" stroke="none" stroke-width="1" fill="none" fill-rule="evenodd" sketch:type="MSPage">
        <g id="logo-dark-small" sketch:type="MSArtboardGroup">
            <path d="M16.3975,0.4758 C7.6665,0.4758 0.5895,7.5528 0.5895,16.2828 C0.5895,25.0138 7.6665,32.0908 16.3975,32.0908 C25.1285,32.0908 32.2055,25.0138 32.2055,16.2828 C32.2055,7.5528 25.1285,0.4758 16.3975,0.4758" id="Fill-31" fill="#0CCCAD" sketch:type="MSShapeGroup"></path>
            <path d="M21.3027,13.1504 C20.6847,13.2524 19.3627,13.2104 19.3627,13.2104 C19.3627,13.2104 19.3527,11.7934 19.4407,11.1214 C19.5447,10.3484 20.3817,9.6614 21.3777,9.7934 C22.2197,9.9014 22.7857,10.5754 22.7677,11.4264 C22.7547,12.2664 22.1297,13.0124 21.3027,13.1504 M17.5297,23.1804 C17.4257,23.9504 16.5907,24.6374 15.5947,24.5064 C14.7477,24.3954 14.1867,23.7254 14.2037,22.8714 C14.2177,22.0344 14.8407,21.2134 15.6717,21.0774 C16.2887,20.9754 17.6097,21.0164 17.6097,21.0164 C17.6097,21.0164 17.6177,22.5054 17.5297,23.1804 M11.5147,17.1024 C11.4127,17.8704 10.5767,18.5584 9.5807,18.4274 C8.7387,18.3194 8.1747,17.6464 8.1877,16.7934 C8.2067,15.9534 8.8267,15.1354 9.6557,14.9974 C10.2747,14.8974 11.5997,14.9354 11.5997,14.9354 C11.5997,14.9354 11.6057,16.4284 11.5147,17.1024 M22.8657,8.4734 C21.5657,7.7764 19.9237,7.9334 18.8277,8.9034 C17.9737,9.6554 17.7077,10.4134 17.6827,11.6334 C17.6697,12.1954 17.6787,13.1844 17.6787,13.2424 L13.3557,13.2424 L13.3557,8.9584 C13.0057,8.9364 12.5827,8.8904 12.2957,8.8974 C11.8137,8.9074 11.6167,9.1934 11.5997,9.6914 C11.5887,9.9724 11.5997,13.1294 11.6017,13.2384 C11.6017,13.2384 9.7997,13.1924 9.0807,13.3864 C7.6457,13.7734 6.5207,14.8994 6.3547,16.3394 C6.1917,17.7234 6.9187,19.1044 8.1587,19.7664 C9.4597,20.4624 11.0997,20.3044 12.1987,19.3374 C13.0537,18.5834 13.3197,17.8264 13.3447,16.6054 C13.3557,16.0274 13.3447,14.9234 13.3447,14.9234 L17.6847,14.9234 C17.6847,14.9234 17.6807,19.3134 17.6807,19.3154 C17.6807,19.3154 15.8807,19.2704 15.1597,19.4654 C13.7307,19.8524 12.6037,20.9794 12.4327,22.4204 C12.2727,23.8024 13.0017,25.1824 14.2387,25.8464 C15.5407,26.5424 17.1807,26.3834 18.2797,25.4184 C19.1357,24.6634 19.3987,23.9074 19.4237,22.6844 L19.4307,21.0084 C19.4307,21.0084 23.1407,21.0164 23.7147,21.0164 C23.7357,20.6674 23.7817,20.2984 23.7757,20.0124 C23.7647,19.5254 23.4777,19.3234 22.9817,19.3044 C22.7007,19.2954 19.4327,19.3134 19.4327,19.3134 C19.4327,19.3134 19.4387,15.8634 19.4387,14.9304 C19.5047,14.9314 21.2397,14.9724 21.9447,14.7804 C23.3777,14.3914 24.5047,13.3384 24.6727,11.8984 C24.8357,10.5154 24.1047,9.1344 22.8657,8.4734" id="Fill-42" fill="#FFFFFF" sketch:type="MSShapeGroup"></path>
        </g>
    </g>
</svg>