<?xml version="1.0" encoding="UTF-8" standalone="no"?>
<svg width="206px" height="32px" viewBox="0 0 206 32" version="1.1" xmlns="http://www.w3.org/2000/svg" xmlns:xlink="http://www.w3.org/1999/xlink" xmlns:sketch="http://www.bohemiancoding.com/sketch/ns">
    <title>logo-hover</title>
    <description>Created with Sketch (http://www.bohemiancoding.com/sketch)</description>
    <defs></defs>
    <g id="Page-1" stroke="none" stroke-width="1" fill="none" fill-rule="evenodd" sketch:type="MSPage">
        <g id="logo-hover" sketch:type="MSArtboardGroup" fill="#0CCCAD">
            <path d="M7.0938,23.3652 C10.9278,23.3652 13.4298,20.7852 13.4298,17.2112 L13.4298,17.1602 C13.4298,13.5882 10.9278,10.9532 7.0938,10.9532 L3.4958,10.9532 L3.4958,23.3652 L7.0938,23.3652 Z M0.2868,9.6482 C0.2868,8.7362 0.9918,8.0332 1.9048,8.0332 L7.0938,8.0332 C12.8298,8.0332 16.7948,11.9702 16.7948,17.1072 L16.7948,17.1602 C16.7948,22.2972 12.8298,26.2872 7.0938,26.2872 L1.9048,26.2872 C0.9918,26.2872 0.2868,25.5822 0.2868,24.6702 L0.2868,9.6482 Z" id="Fill-33" sketch:type="MSShapeGroup"></path>
            <path d="M31.8359,19.0371 L28.6289,11.6581 L25.4199,19.0371 L31.8359,19.0371 Z M19.8929,24.2011 L26.6719,9.0761 C27.0369,8.2671 27.6899,7.7711 28.6019,7.7711 L28.7579,7.7711 C29.6719,7.7711 30.2969,8.2671 30.6619,9.0761 L37.4429,24.2011 C37.5719,24.4351 37.6249,24.6701 37.6249,24.8791 C37.6249,25.7381 36.9729,26.4181 36.1129,26.4181 C35.3559,26.4181 34.8339,25.9741 34.5489,25.2951 L33.0609,21.8791 L24.1949,21.8791 L22.6559,25.4001 C22.3969,26.0531 21.8479,26.4181 21.1699,26.4181 C20.3359,26.4181 19.6839,25.7661 19.6839,24.9301 C19.6839,24.6951 19.7619,24.4611 19.8929,24.2011 L19.8929,24.2011 Z" id="Fill-34" sketch:type="MSShapeGroup"></path>
            <path d="M41.9746,24.252 C41.6096,23.992 41.3476,23.549 41.3476,23.027 C41.3476,22.193 42.0276,21.541 42.8616,21.541 C43.3046,21.541 43.5916,21.672 43.8006,21.828 C45.3126,23.027 46.9296,23.705 48.9106,23.705 C50.8926,23.705 52.1446,22.766 52.1446,21.41 L52.1446,21.357 C52.1446,20.055 51.4136,19.35 48.0236,18.568 C44.1386,17.629 41.9496,16.482 41.9496,13.117 L41.9496,13.066 C41.9496,9.936 44.5566,7.772 48.1816,7.772 C50.4766,7.772 52.3286,8.371 53.9706,9.467 C54.3356,9.676 54.6736,10.119 54.6736,10.744 C54.6736,11.578 53.9956,12.231 53.1626,12.231 C52.8496,12.231 52.5876,12.152 52.3286,11.996 C50.9196,11.084 49.5626,10.613 48.1286,10.613 C46.2516,10.613 45.1566,11.578 45.1566,12.779 L45.1566,12.83 C45.1566,14.238 45.9906,14.865 49.5116,15.699 C53.3706,16.639 55.3516,18.02 55.3516,21.045 L55.3516,21.098 C55.3516,24.514 52.6656,26.547 48.8316,26.547 C46.3556,26.547 44.0076,25.766 41.9746,24.252" id="Fill-35" sketch:type="MSShapeGroup"></path>
            <path d="M109.2676,9.6484 C109.2676,8.7364 109.9726,8.0334 110.8846,8.0334 L121.5236,8.0334 C122.3316,8.0334 122.9846,8.6834 122.9846,9.4924 C122.9846,10.3004 122.3316,10.9534 121.5236,10.9534 L112.4746,10.9534 L112.4746,15.9334 L120.3496,15.9334 C121.1586,15.9334 121.8106,16.5854 121.8106,17.3944 C121.8106,18.2034 121.1586,18.8554 120.3496,18.8554 L112.4746,18.8554 L112.4746,24.8264 C112.4746,25.7124 111.7716,26.4184 110.8846,26.4184 C109.9726,26.4184 109.2676,25.7124 109.2676,24.8264 L109.2676,9.6484 Z" id="Fill-36" sketch:type="MSShapeGroup"></path>
            <path d="M128.6387,9.4922 C128.6387,8.6052 129.3417,7.9022 130.2557,7.9022 C131.1407,7.9022 131.8457,8.6052 131.8457,9.4922 L131.8457,24.8262 C131.8457,25.7132 131.1407,26.4182 130.2557,26.4182 C129.3417,26.4182 128.6387,25.7132 128.6387,24.8262 L128.6387,9.4922 Z" id="Fill-37" sketch:type="MSShapeGroup"></path>
            <path d="M138.2832,9.4922 C138.2832,8.6052 138.9882,7.9022 139.9002,7.9022 C140.7872,7.9022 141.4922,8.6052 141.4922,9.4922 L141.4922,23.3652 L149.7582,23.3652 C150.5662,23.3652 151.2192,24.0172 151.2192,24.8262 C151.2192,25.6352 150.5662,26.2872 149.7582,26.2872 L139.9002,26.2872 C138.9882,26.2872 138.2832,25.5822 138.2832,24.6702 L138.2832,9.4922 Z" id="Fill-38" sketch:type="MSShapeGroup"></path>
            <path d="M157.8633,11.0059 L153.4313,11.0059 C152.5953,11.0059 151.9453,10.3279 151.9453,9.5199 C151.9453,8.7109 152.5953,8.0329 153.4313,8.0329 L165.5563,8.0329 C166.3653,8.0329 167.0173,8.7109 167.0173,9.5199 C167.0173,10.3279 166.3653,11.0059 165.5563,11.0059 L161.0973,11.0059 L161.0973,24.8259 C161.0973,25.7129 160.3673,26.4179 159.4803,26.4179 C158.5933,26.4179 157.8633,25.7129 157.8633,24.8259 L157.8633,11.0059 Z" id="Fill-39" sketch:type="MSShapeGroup"></path>
            <path d="M171.8379,24.6699 L171.8379,9.6489 C171.8379,8.7359 172.5409,8.0329 173.4529,8.0329 L184.0669,8.0329 C184.8499,8.0329 185.5019,8.6839 185.5019,9.4669 C185.5019,10.2749 184.8499,10.8999 184.0669,10.8999 L175.0449,10.8999 L175.0449,15.6469 L182.8949,15.6469 C183.6759,15.6469 184.3279,16.2989 184.3279,17.1079 C184.3279,17.8909 183.6759,18.5159 182.8949,18.5159 L175.0449,18.5159 L175.0449,23.4179 L184.1969,23.4179 C184.9809,23.4179 185.6309,24.0699 185.6309,24.8519 C185.6309,25.6599 184.9809,26.2869 184.1969,26.2869 L173.4529,26.2869 C172.5409,26.2869 171.8379,25.5819 171.8379,24.6699" id="Fill-40" sketch:type="MSShapeGroup"></path>
            <path d="M198.7695,17.082 C201.0645,17.082 202.5255,15.881 202.5255,14.031 L202.5255,13.978 C202.5255,12.021 201.1175,10.953 198.7445,10.953 L194.0765,10.953 L194.0765,17.082 L198.7695,17.082 Z M190.8695,9.648 C190.8695,8.736 191.5725,8.033 192.4865,8.033 L199.0035,8.033 C201.2985,8.033 203.0995,8.711 204.2715,9.857 C205.2365,10.85 205.7855,12.205 205.7855,13.795 L205.7855,13.848 C205.7855,16.768 204.0895,18.541 201.6385,19.299 L205.1325,23.705 C205.4455,24.096 205.6545,24.436 205.6545,24.93 C205.6545,25.816 204.8985,26.418 204.1155,26.418 C203.3865,26.418 202.9155,26.078 202.5505,25.582 L198.1175,19.924 L194.0765,19.924 L194.0765,24.826 C194.0765,25.713 193.3735,26.418 192.4865,26.418 C191.5725,26.418 190.8695,25.713 190.8695,24.826 L190.8695,9.648 Z" id="Fill-41" sketch:type="MSShapeGroup"></path>
            <path d="M82.3975,29.0488 C75.3465,29.0488 69.6315,23.3338 69.6315,16.2828 C69.6315,9.2328 75.3465,3.5178 82.3975,3.5178 C89.4485,3.5178 95.1635,9.2328 95.1635,16.2828 C95.1635,23.3338 89.4485,29.0488 82.3975,29.0488 M82.3975,0.4758 C73.6665,0.4758 66.5895,7.5528 66.5895,16.2828 C66.5895,25.0138 73.6665,32.0908 82.3975,32.0908 C91.1285,32.0908 98.2055,25.0138 98.2055,16.2828 C98.2055,7.5528 91.1285,0.4758 82.3975,0.4758" id="Fill-31" sketch:type="MSShapeGroup"></path>
            <path d="M87.3027,13.1504 C86.6847,13.2524 85.3627,13.2104 85.3627,13.2104 C85.3627,13.2104 85.3527,11.7934 85.4407,11.1214 C85.5447,10.3484 86.3817,9.6614 87.3777,9.7934 C88.2197,9.9014 88.7857,10.5754 88.7677,11.4264 C88.7547,12.2664 88.1297,13.0124 87.3027,13.1504 M83.5297,23.1804 C83.4257,23.9504 82.5907,24.6374 81.5947,24.5064 C80.7477,24.3954 80.1867,23.7254 80.2037,22.8714 C80.2177,22.0344 80.8407,21.2134 81.6717,21.0774 C82.2887,20.9754 83.6097,21.0164 83.6097,21.0164 C83.6097,21.0164 83.6177,22.5054 83.5297,23.1804 M77.5147,17.1024 C77.4127,17.8704 76.5767,18.5584 75.5807,18.4274 C74.7387,18.3194 74.1747,17.6464 74.1877,16.7934 C74.2067,15.9534 74.8267,15.1354 75.6557,14.9974 C76.2747,14.8974 77.5997,14.9354 77.5997,14.9354 C77.5997,14.9354 77.6057,16.4284 77.5147,17.1024 M88.8657,8.4734 C87.5657,7.7764 85.9237,7.9334 84.8277,8.9034 C83.9737,9.6554 83.7077,10.4134 83.6827,11.6334 C83.6697,12.1954 83.6787,13.1844 83.6787,13.2424 L79.3557,13.2424 L79.3557,8.9584 C79.0057,8.9364 78.5827,8.8904 78.2957,8.8974 C77.8137,8.9074 77.6167,9.1934 77.5997,9.6914 C77.5887,9.9724 77.5997,13.1294 77.6017,13.2384 C77.6017,13.2384 75.7997,13.1924 75.0807,13.3864 C73.6457,13.7734 72.5207,14.8994 72.3547,16.3394 C72.1917,17.7234 72.9187,19.1044 74.1587,19.7664 C75.4597,20.4624 77.0997,20.3044 78.1987,19.3374 C79.0537,18.5834 79.3197,17.8264 79.3447,16.6054 C79.3557,16.0274 79.3447,14.9234 79.3447,14.9234 L83.6847,14.9234 C83.6847,14.9234 83.6807,19.3134 83.6807,19.3154 C83.6807,19.3154 81.8807,19.2704 81.1597,19.4654 C79.7307,19.8524 78.6037,20.9794 78.4327,22.4204 C78.2727,23.8024 79.0017,25.1824 80.2387,25.8464 C81.5407,26.5424 83.1807,26.3834 84.2797,25.4184 C85.1357,24.6634 85.3987,23.9074 85.4237,22.6844 L85.4307,21.0084 C85.4307,21.0084 89.1407,21.0164 89.7147,21.0164 C89.7357,20.6674 89.7817,20.2984 89.7757,20.0124 C89.7647,19.5254 89.4777,19.3234 88.9817,19.3044 C88.7007,19.2954 85.4327,19.3134 85.4327,19.3134 C85.4327,19.3134 85.4387,15.8634 85.4387,14.9304 C85.5047,14.9314 87.2397,14.9724 87.9447,14.7804 C89.3777,14.3914 90.5047,13.3384 90.6727,11.8984 C90.8357,10.5154 90.1047,9.1344 88.8657,8.4734" id="Fill-42" sketch:type="MSShapeGroup"></path>
        </g>
    </g>
</svg>