<?xml version="1.0" encoding="UTF-8" standalone="no"?>
<svg width="32px" height="32px" viewBox="0 0 32 32" version="1.1" xmlns="http://www.w3.org/2000/svg" xmlns:xlink="http://www.w3.org/1999/xlink" xmlns:sketch="http://www.bohemiancoding.com/sketch/ns">
    <title>twitter-color</title>
    <description>Created with Sketch (http://www.bohemiancoding.com/sketch)</description>
    <defs></defs>
    <g id="Page-1" stroke="none" stroke-width="1" fill="none" fill-rule="evenodd" sketch:type="MSPage">
        <g id="twitter-color" sketch:type="MSArtboardGroup" fill="#55ACEE">
            <path d="M15.9007347,0.102530612 C7.01910204,0.102530612 -0.180897959,7.30383673 -0.180897959,16.1841633 C-0.180897959,25.0657959 7.01910204,32.2644898 15.9007347,32.2644898 C24.7823673,32.2644898 31.9810612,25.0657959 31.9810612,16.1841633 C31.9810612,7.30383673 24.7817143,0.102530612 15.9007347,0.102530612 L15.9007347,0.102530612 Z M24.0013061,12.9417143 C24.0097959,13.1154286 24.0130612,13.2897959 24.0130612,13.4661224 C24.0130612,18.8218776 19.9366531,24.9965714 12.4826122,24.9965714 C10.1942857,24.9965714 8.06334694,24.3258776 6.27004082,23.1764898 C6.58742857,23.2137143 6.90938776,23.2326531 7.23657143,23.2326531 C9.13567347,23.2326531 10.8832653,22.5848163 12.2697143,21.4981224 C10.4966531,21.4648163 9.0004898,20.2925714 8.48457143,18.6827755 C8.73142857,18.731102 8.98546939,18.7552653 9.24669388,18.7552653 C9.61632653,18.7552653 9.97420408,18.7069388 10.314449,18.613551 C8.4597551,18.2413061 7.06285714,16.6021224 7.06285714,14.6403265 C7.06285714,14.6226939 7.06285714,14.6057143 7.0635102,14.5880816 C7.60946939,14.8917551 8.23444898,15.0739592 8.89926531,15.0955102 C7.81126531,14.3673469 7.09616327,13.1284898 7.09616327,11.7217959 C7.09616327,10.9792653 7.296,10.282449 7.64473469,9.6842449 C9.6437551,12.1358367 12.6302041,13.749551 15.9986939,13.9180408 C15.9294694,13.6222041 15.893551,13.312 15.893551,12.9946122 C15.893551,10.7572245 17.7077551,8.94236735 19.946449,8.94236735 C21.1121633,8.94236735 22.164898,9.43477551 22.9041633,10.2217143 C23.8275918,10.0408163 24.6948571,9.70253061 25.4778776,9.23820408 C25.1742041,10.1851429 24.5322449,10.9792653 23.6950204,11.4801633 C24.5159184,11.3822041 25.2969796,11.1640816 26.0231837,10.8421224 C25.4811429,11.6564898 24.7934694,12.3702857 24.0013061,12.9417143 L24.0013061,12.9417143 Z" id="Shape" sketch:type="MSShapeGroup"></path>
        </g>
    </g>
</svg>